<svg width="20" height="20" viewBox="0 0 20 20" fill="none" xmlns="http://www.w3.org/2000/svg">
<g clip-path="url(#clip0_110_2369)">
<path d="M19.8969 5.77072L17.165 0.546973C17.0056 0.242598 16.5931 -0.00677734 16.25 -0.00677734H9.9625C9.95562 -0.00740234 9.94875 -0.00865234 9.94187 -0.00927734C9.93625 -0.00927734 9.93062 -0.00740234 9.925 -0.00677734H3.75C3.40625 -0.00677734 2.99312 0.241973 2.83125 0.545098L0.106875 5.66822C-0.0550005 5.97197 -0.0225005 6.44822 0.1775 6.72822L9.55312 19.7976C9.65375 19.9376 9.7875 20.0088 9.92062 20.0088C10.0531 20.0088 10.1856 19.9401 10.2875 19.802L19.8169 6.82822C20.02 6.55072 20.0562 6.07572 19.8969 5.77135V5.77072ZM18.4056 5.6176H15.0569L16.3981 1.7776L18.4056 5.6176ZM11.2369 1.24385H15.2594L14.0112 4.81635L11.2369 1.24385ZM13.0513 5.6176H7.23812L9.98562 1.6701L13.0513 5.6176ZM6.13062 5.02135L4.87687 1.24385H8.76L6.13062 5.02135ZM13.2956 6.8676L9.93563 16.4876L6.74312 6.8676H13.2956ZM8.53375 16.232L1.81625 6.8676H5.42625L8.53375 16.232ZM14.62 6.8676H18.2369L11.3431 16.2538L14.62 6.8676ZM3.68125 1.60947L5.01125 5.6176H1.54937L3.68125 1.60947Z" fill="#6F7782"/>
</g>
<defs>
<clipPath id="clip0_110_2369">
<rect width="20" height="20" fill="white"/>
</clipPath>
</defs>
</svg>
