<svg width="20" height="20" viewBox="0 0 20 20" fill="none" xmlns="http://www.w3.org/2000/svg">
<g clip-path="url(#clip0_110_2377)">
<path d="M15.625 7.52176L6.7 7.52178L6.37656 6.07113C5.825 4.01301 6.78312 1.96113 8.97594 1.37363C11.1466 0.792068 13.0597 2.03644 13.6209 4.12988L13.8866 5.18392C13.9759 5.51738 14.3184 5.71517 14.6522 5.6258C14.9856 5.53642 15.1834 5.19392 15.0941 4.86049L14.8281 3.80642C14.0863 1.03611 11.5003 -0.596701 8.6525 0.166111C5.79375 0.932029 4.43937 3.67049 5.16937 6.39486L5.42063 7.52174H4.375C2.99625 7.52174 1.875 8.64299 1.875 10.0217V17.5217C1.875 18.9005 2.99625 20.0217 4.375 20.0217H15.625C17.0037 20.0217 18.125 18.9005 18.125 17.5217V10.0217C18.125 8.64299 17.0037 7.52174 15.625 7.52174V7.52176ZM16.875 17.5218C16.875 18.2108 16.3141 18.7718 15.625 18.7718H4.375C3.68594 18.7718 3.125 18.2108 3.125 17.5218V10.0218C3.125 9.33269 3.68594 8.77176 4.375 8.77176H15.625C16.3141 8.77176 16.875 9.33269 16.875 10.0218V17.5218ZM10 11.2718C9.30969 11.2718 8.75 11.8314 8.75 12.5218C8.75 12.9833 9.00313 13.3818 9.375 13.5983V15.6468C9.375 15.9918 9.655 16.2718 10 16.2718C10.345 16.2718 10.625 15.9918 10.625 15.6468V13.5983C10.9969 13.3818 11.25 12.983 11.25 12.5218C11.25 11.8314 10.6903 11.2718 10 11.2718Z" fill="#6F7782"/>
</g>
<defs>
<clipPath id="clip0_110_2377">
<rect width="20" height="20" fill="white"/>
</clipPath>
</defs>
</svg>
