<svg width="24" height="24" viewBox="0 0 24 24" fill="none" xmlns="http://www.w3.org/2000/svg">
<path d="M21.3057 9.5913L19.368 10.8128C19.2274 10.8972 19.0613 10.9286 18.8996 10.9013C18.7379 10.8739 18.5913 10.7897 18.4863 10.6637L17.5238 9.45488V18.6204C17.5235 18.7794 17.4601 18.9318 17.3477 19.0442C17.2352 19.1567 17.0828 19.22 16.9238 19.2204H7.08379C6.92476 19.22 6.77234 19.1567 6.65989 19.0442C6.54744 18.9318 6.48412 18.7794 6.48379 18.6204V9.44478L5.51242 10.6637C5.40748 10.7894 5.26113 10.8734 5.09972 10.9007C4.93831 10.9281 4.77245 10.8969 4.632 10.8128L2.69305 9.5913C2.62825 9.55406 2.57285 9.50246 2.53112 9.44047C2.48938 9.37847 2.46241 9.30773 2.45228 9.23369C2.44216 9.15964 2.44915 9.08426 2.47271 9.01333C2.49627 8.94241 2.53579 8.87783 2.58821 8.82456L5.424 5.67677C5.75732 5.30625 6.16483 5.00997 6.62008 4.80715C7.07533 4.60434 7.56814 4.49952 8.06652 4.49951H9.24758C9.47877 5.03889 9.86315 5.49858 10.3531 5.82162C10.843 6.14465 11.4169 6.31684 12.0038 6.31684C12.5906 6.31684 13.1646 6.14465 13.6545 5.82162C14.1444 5.49858 14.5288 5.03889 14.76 4.49951H15.9398C16.4385 4.49966 16.9315 4.60466 17.387 4.80769C17.8424 5.01072 18.2501 5.30725 18.5836 5.67804L21.413 8.8233C21.4654 8.87686 21.5047 8.94169 21.5281 9.01283C21.5515 9.08396 21.5582 9.1595 21.5479 9.23365C21.5375 9.30781 21.5103 9.3786 21.4683 9.4406C21.4263 9.50259 21.3707 9.55415 21.3057 9.5913Z" fill="#6F7782"/>
</svg>
